<?xml version="1.0" encoding="UTF-8"?>
<svg xmlns="http://www.w3.org/2000/svg" xmlns:xlink="http://www.w3.org/1999/xlink" width="24pt" height="24pt" viewBox="0 0 24 24" version="1.1">
<g id="surface1">
<path style=" stroke:none;fill-rule:nonzero;fill:rgb(0%,0%,0%);fill-opacity:1;" d="M 16.132812 0.015625 C 16.085938 0.015625 16.03125 0.0195312 15.980469 0.0234375 C 13.929688 0.390625 12.800781 2.640625 12.636719 4.625 C 12.398438 6.425781 13.164062 8.738281 15.070312 9.140625 C 15.347656 9.195312 15.632812 9.171875 15.902344 9.09375 C 18.199219 8.296875 19.226562 5.476562 18.894531 3.144531 C 18.796875 1.636719 17.703125 -0.00390625 16.132812 0.015625 Z M 7.4375 0.113281 C 6.164062 0.144531 5.167969 1.488281 4.96875 2.746094 C 4.542969 5.246094 5.636719 8.351562 8.148438 9.140625 C 8.382812 9.195312 8.625 9.199219 8.863281 9.160156 C 10.558594 8.867188 11.277344 6.894531 11.207031 5.304688 C 11.15625 3.203125 10.105469 0.773438 8 0.183594 C 7.808594 0.128906 7.621094 0.109375 7.4375 0.113281 Z M 21.691406 7.210938 C 19.484375 7.347656 17.972656 9.628906 17.757812 11.761719 C 17.464844 13.300781 18.257812 15.355469 19.949219 15.480469 C 22.308594 15.449219 23.917969 12.835938 23.984375 10.585938 C 24.132812 9.097656 23.289062 7.292969 21.691406 7.210938 Z M 2.378906 7.714844 C 1.441406 7.707031 0.519531 8.292969 0.210938 9.28125 C -0.605469 11.929688 1.035156 15.28125 3.738281 15.835938 C 4.867188 16.039062 5.859375 15.140625 6.140625 14.058594 C 6.730469 11.746094 5.515625 9.058594 3.453125 8.007812 C 3.117188 7.8125 2.746094 7.71875 2.378906 7.714844 Z M 12.269531 12.464844 C 10.429688 12.46875 8.5625 13.4375 7.371094 14.878906 C 6.082031 16.558594 5.027344 18.515625 4.617188 20.632812 C 4.117188 22.160156 5.25 23.917969 6.824219 23.929688 C 8.71875 23.984375 10.34375 22.632812 12.226562 22.535156 C 13.824219 22.28125 15.253906 23.144531 16.691406 23.707031 C 17.910156 24.25 19.601562 24.042969 20.226562 22.675781 C 20.714844 21.285156 19.992188 19.804688 19.394531 18.570312 C 18.175781 16.5625 16.867188 14.457031 14.863281 13.207031 C 14.0625 12.691406 13.171875 12.460938 12.269531 12.464844 Z M 12.269531 12.464844 "/>
</g>
</svg>
